<?xml version="1.0" encoding="iso-8859-1"?>
<!-- Uploaded to: SVG Repo, www.svgrepo.com, Generator: SVG Repo Mixer Tools -->
<svg height="800px" width="800px" version="1.1" id="Layer_1" xmlns="http://www.w3.org/2000/svg" xmlns:xlink="http://www.w3.org/1999/xlink" 
	 viewBox="0 0 512 512" xml:space="preserve">
<path style="fill:#ffd6e0;" d="M197.913,161.145l54.075-65.208c2.498-3.011,2.729-7.294,0.569-10.557l-29.085-43.94
	c-1.653-2.494-4.451-3.996-7.451-3.996H111.192c-2.999,0-5.8,1.502-7.45,3.996l-29.088,43.94c-2.158,3.262-1.926,7.544,0.572,10.557
	l54.075,65.208H197.913z"/>
<polygon style="fill:#ffb3c1;" points="175.598,161.145 199.021,90.205 128.192,90.205 151.615,161.145 "/>
<path style="fill:#ffd6e0;" d="M252.557,85.381l-29.085-43.94c-1.653-2.494-4.451-3.996-7.451-3.996H111.192
	c-2.999,0-5.8,1.502-7.45,3.996l-29.088,43.94c-1.1,1.665-1.576,3.594-1.449,5.488h180.802
	C254.135,88.976,253.659,87.045,252.557,85.381z"/>
<g>
	<path style="fill:#ffb3c1;" d="M107.137,38.428c-1.352,0.688-2.531,1.708-3.393,3.011l-29.09,43.942
		c-1.1,1.663-1.576,3.594-1.449,5.488h68.647L107.137,38.428z"/>
	<path style="fill:#ffb3c1;" d="M185.36,90.868h68.65c0.126-1.893-0.348-3.823-1.453-5.488l-29.087-43.942
		c-0.862-1.303-2.04-2.324-3.395-3.011L185.36,90.868z"/>
</g>
<path style="opacity:0.1;enable-background:new    ;" d="M108.724,85.381l29.088-43.94c1.65-2.494,4.45-3.996,7.449-3.996h-34.069
	c-2.999,0-5.8,1.502-7.45,3.996l-29.088,43.94c-2.158,3.262-1.926,7.544,0.572,10.557l54.075,65.208l-20.006-65.208
	C106.797,92.926,106.565,88.643,108.724,85.381z"/>
<polygon style="fill:#ffe8ee;" points="163.555,37.445 128.192,90.868 199.021,90.868 163.656,37.445 "/>
<path style="fill:#ffb3c1;" d="M163.606,148.009C73.248,148.009,0,221.109,0,311.281c0,90.174,73.248,163.274,163.606,163.274
	c90.359,0,163.606-73.1,163.606-163.274C327.212,221.109,253.965,148.009,163.606,148.009z M163.606,430.766
	c-66.019,0-119.728-53.601-119.728-119.485c0-65.881,53.709-119.485,119.728-119.485c66.017,0,119.727,53.604,119.727,119.485
	C283.332,377.165,229.623,430.766,163.606,430.766z"/>
<g style="opacity:0.1;">
	<path d="M22.565,311.281c0-86.387,67.231-157.094,152.324-162.879c-3.728-0.254-7.489-0.393-11.282-0.393
		C73.248,148.009,0,221.109,0,311.281c0,90.174,73.248,163.274,163.606,163.274c3.793,0,7.554-0.14,11.282-0.394
		C89.794,468.375,22.565,397.669,22.565,311.281z"/>
</g>
<path style="fill:#ff8fab;" d="M348.393,148.009c-34.29,0-66.112,10.535-92.406,28.528c12.603,8.619,23.938,18.949,33.661,30.664
	c17.366-9.801,37.41-15.404,58.744-15.404c66.018,0,119.725,53.604,119.725,119.485c0,65.884-53.708,119.485-119.725,119.485
	c-66.019,0-119.729-53.601-119.729-119.485c0-28.796,10.261-55.245,27.325-75.898c-9.361-11.329-20.762-20.919-33.649-28.188
	c-23.454,28.257-37.554,64.527-37.554,104.086c0,90.174,73.247,163.274,163.606,163.274c90.358,0,163.607-73.1,163.607-163.274
	C512,221.109,438.751,148.009,348.393,148.009z"/>
<g style="opacity:0.1;">
	<path d="M206.885,311.281c0-35.149,11.139-67.697,30.072-94.34c-4.617-3.587-9.493-6.858-14.616-9.747
		c-23.454,28.257-37.554,64.527-37.554,104.086c0,90.174,73.247,163.274,163.606,163.274c3.715,0,7.396-0.136,11.048-0.378
		C274.237,468.504,206.885,397.749,206.885,311.281z"/>
</g>
</svg>