<svg width="100%" viewBox="0 0 680 200" role="img" xmlns="http://www.w3.org/2000/svg">
  <title>MarryView README banner</title>
  <desc>화이트 로즈 웨딩 테마 배너</desc>

  <defs>
    <linearGradient id="bg2" x1="0" y1="0" x2="1" y2="1">
      <stop offset="0%" stop-color="#fff8f9"/>
      <stop offset="50%" stop-color="#fce4ec"/>
      <stop offset="100%" stop-color="#fdf0f4"/>
    </linearGradient>
    <linearGradient id="petal1" x1="0" y1="0" x2="0" y2="1">
      <stop offset="0%" stop-color="#ffffff"/>
      <stop offset="100%" stop-color="#ffd6e4"/>
    </linearGradient>
    <linearGradient id="petal2" x1="0" y1="0" x2="0" y2="1">
      <stop offset="0%" stop-color="#fff0f5"/>
      <stop offset="100%" stop-color="#ffb6cf"/>
    </linearGradient>
    <linearGradient id="rib" x1="0" y1="0" x2="1" y2="0">
      <stop offset="0%" stop-color="#ffb6cf"/>
      <stop offset="50%" stop-color="#ffffff"/>
      <stop offset="100%" stop-color="#ffb6cf"/>
    </linearGradient>
  </defs>

  <rect width="680" height="200" rx="16" fill="url(#bg2)"/>

  <circle cx="80" cy="50" r="70" fill="#fce4ec" opacity="0.25"/>
  <circle cx="600" cy="155" r="75" fill="#fce4ec" opacity="0.22"/>
  <circle cx="340" cy="210" r="90" fill="#fff0f5" opacity="0.3"/>

  <g transform="translate(90,100)">
    <ellipse cx="0" cy="-26" rx="11" ry="20" fill="url(#petal1)" stroke="#ffb6cf" stroke-width="0.8" opacity="0.9" transform="rotate(0)"/>
    <ellipse cx="0" cy="-26" rx="11" ry="20" fill="url(#petal1)" stroke="#ffb6cf" stroke-width="0.8" opacity="0.9" transform="rotate(45)"/>
    <ellipse cx="0" cy="-26" rx="11" ry="20" fill="url(#petal1)" stroke="#ffb6cf" stroke-width="0.8" opacity="0.9" transform="rotate(90)"/>
    <ellipse cx="0" cy="-26" rx="11" ry="20" fill="url(#petal1)" stroke="#ffb6cf" stroke-width="0.8" opacity="0.9" transform="rotate(135)"/>
    <ellipse cx="0" cy="-26" rx="11" ry="20" fill="url(#petal1)" stroke="#ffb6cf" stroke-width="0.8" opacity="0.9" transform="rotate(180)"/>
    <ellipse cx="0" cy="-26" rx="11" ry="20" fill="url(#petal1)" stroke="#ffb6cf" stroke-width="0.8" opacity="0.9" transform="rotate(225)"/>
    <ellipse cx="0" cy="-26" rx="11" ry="20" fill="url(#petal1)" stroke="#ffb6cf" stroke-width="0.8" opacity="0.9" transform="rotate(270)"/>
    <ellipse cx="0" cy="-26" rx="11" ry="20" fill="url(#petal1)" stroke="#ffb6cf" stroke-width="0.8" opacity="0.9" transform="rotate(315)"/>
    <ellipse cx="0" cy="-16" rx="8" ry="13" fill="url(#petal2)" stroke="#ffaac5" stroke-width="0.6" opacity="0.95" transform="rotate(22)"/>
    <ellipse cx="0" cy="-16" rx="8" ry="13" fill="url(#petal2)" stroke="#ffaac5" stroke-width="0.6" opacity="0.95" transform="rotate(67)"/>
    <ellipse cx="0" cy="-16" rx="8" ry="13" fill="url(#petal2)" stroke="#ffaac5" stroke-width="0.6" opacity="0.95" transform="rotate(112)"/>
    <ellipse cx="0" cy="-16" rx="8" ry="13" fill="url(#petal2)" stroke="#ffaac5" stroke-width="0.6" opacity="0.95" transform="rotate(157)"/>
    <ellipse cx="0" cy="-16" rx="8" ry="13" fill="url(#petal2)" stroke="#ffaac5" stroke-width="0.6" opacity="0.95" transform="rotate(202)"/>
    <ellipse cx="0" cy="-16" rx="8" ry="13" fill="url(#petal2)" stroke="#ffaac5" stroke-width="0.6" opacity="0.95" transform="rotate(247)"/>
    <ellipse cx="0" cy="-16" rx="8" ry="13" fill="url(#petal2)" stroke="#ffaac5" stroke-width="0.6" opacity="0.95" transform="rotate(292)"/>
    <ellipse cx="0" cy="-16" rx="8" ry="13" fill="url(#petal2)" stroke="#ffaac5" stroke-width="0.6" opacity="0.95" transform="rotate(337)"/>
    <circle cx="0" cy="0" r="11" fill="#fff0f5" stroke="#ffaac5" stroke-width="0.8"/>
    <circle cx="0" cy="0" r="6" fill="#ffb6cf"/>
    <circle cx="0" cy="0" r="3" fill="#ff80ab"/>
  </g>

  <g transform="translate(590,100)">
    <ellipse cx="0" cy="-26" rx="11" ry="20" fill="url(#petal1)" stroke="#ffb6cf" stroke-width="0.8" opacity="0.9" transform="rotate(0)"/>
    <ellipse cx="0" cy="-26" rx="11" ry="20" fill="url(#petal1)" stroke="#ffb6cf" stroke-width="0.8" opacity="0.9" transform="rotate(45)"/>
    <ellipse cx="0" cy="-26" rx="11" ry="20" fill="url(#petal1)" stroke="#ffb6cf" stroke-width="0.8" opacity="0.9" transform="rotate(90)"/>
    <ellipse cx="0" cy="-26" rx="11" ry="20" fill="url(#petal1)" stroke="#ffb6cf" stroke-width="0.8" opacity="0.9" transform="rotate(135)"/>
    <ellipse cx="0" cy="-26" rx="11" ry="20" fill="url(#petal1)" stroke="#ffb6cf" stroke-width="0.8" opacity="0.9" transform="rotate(180)"/>
    <ellipse cx="0" cy="-26" rx="11" ry="20" fill="url(#petal1)" stroke="#ffb6cf" stroke-width="0.8" opacity="0.9" transform="rotate(225)"/>
    <ellipse cx="0" cy="-26" rx="11" ry="20" fill="url(#petal1)" stroke="#ffb6cf" stroke-width="0.8" opacity="0.9" transform="rotate(270)"/>
    <ellipse cx="0" cy="-26" rx="11" ry="20" fill="url(#petal1)" stroke="#ffb6cf" stroke-width="0.8" opacity="0.9" transform="rotate(315)"/>
    <ellipse cx="0" cy="-16" rx="8" ry="13" fill="url(#petal2)" stroke="#ffaac5" stroke-width="0.6" opacity="0.95" transform="rotate(22)"/>
    <ellipse cx="0" cy="-16" rx="8" ry="13" fill="url(#petal2)" stroke="#ffaac5" stroke-width="0.6" opacity="0.95" transform="rotate(67)"/>
    <ellipse cx="0" cy="-16" rx="8" ry="13" fill="url(#petal2)" stroke="#ffaac5" stroke-width="0.6" opacity="0.95" transform="rotate(112)"/>
    <ellipse cx="0" cy="-16" rx="8" ry="13" fill="url(#petal2)" stroke="#ffaac5" stroke-width="0.6" opacity="0.95" transform="rotate(157)"/>
    <ellipse cx="0" cy="-16" rx="8" ry="13" fill="url(#petal2)" stroke="#ffaac5" stroke-width="0.6" opacity="0.95" transform="rotate(202)"/>
    <ellipse cx="0" cy="-16" rx="8" ry="13" fill="url(#petal2)" stroke="#ffaac5" stroke-width="0.6" opacity="0.95" transform="rotate(247)"/>
    <ellipse cx="0" cy="-16" rx="8" ry="13" fill="url(#petal2)" stroke="#ffaac5" stroke-width="0.6" opacity="0.95" transform="rotate(292)"/>
    <ellipse cx="0" cy="-16" rx="8" ry="13" fill="url(#petal2)" stroke="#ffaac5" stroke-width="0.6" opacity="0.95" transform="rotate(337)"/>
    <circle cx="0" cy="0" r="11" fill="#fff0f5" stroke="#ffaac5" stroke-width="0.8"/>
    <circle cx="0" cy="0" r="6" fill="#ffb6cf"/>
    <circle cx="0" cy="0" r="3" fill="#ff80ab"/>
  </g>

  <g transform="translate(168,42) scale(0.6)">
    <ellipse cx="0" cy="-18" rx="8" ry="14" fill="#ffffff" stroke="#ffd6e4" stroke-width="0.8" transform="rotate(0)"/>
    <ellipse cx="0" cy="-18" rx="8" ry="14" fill="#ffffff" stroke="#ffd6e4" stroke-width="0.8" transform="rotate(60)"/>
    <ellipse cx="0" cy="-18" rx="8" ry="14" fill="#ffffff" stroke="#ffd6e4" stroke-width="0.8" transform="rotate(120)"/>
    <ellipse cx="0" cy="-18" rx="8" ry="14" fill="#ffffff" stroke="#ffd6e4" stroke-width="0.8" transform="rotate(180)"/>
    <ellipse cx="0" cy="-18" rx="8" ry="14" fill="#ffffff" stroke="#ffd6e4" stroke-width="0.8" transform="rotate(240)"/>
    <ellipse cx="0" cy="-18" rx="8" ry="14" fill="#ffffff" stroke="#ffd6e4" stroke-width="0.8" transform="rotate(300)"/>
    <circle cx="0" cy="0" r="8" fill="#fff0f5"/>
    <circle cx="0" cy="0" r="4" fill="#ffb6cf"/>
  </g>

  <g transform="translate(512,162) scale(0.6)">
    <ellipse cx="0" cy="-18" rx="8" ry="14" fill="#ffffff" stroke="#ffd6e4" stroke-width="0.8" transform="rotate(0)"/>
    <ellipse cx="0" cy="-18" rx="8" ry="14" fill="#ffffff" stroke="#ffd6e4" stroke-width="0.8" transform="rotate(60)"/>
    <ellipse cx="0" cy="-18" rx="8" ry="14" fill="#ffffff" stroke="#ffd6e4" stroke-width="0.8" transform="rotate(120)"/>
    <ellipse cx="0" cy="-18" rx="8" ry="14" fill="#ffffff" stroke="#ffd6e4" stroke-width="0.8" transform="rotate(180)"/>
    <ellipse cx="0" cy="-18" rx="8" ry="14" fill="#ffffff" stroke="#ffd6e4" stroke-width="0.8" transform="rotate(240)"/>
    <ellipse cx="0" cy="-18" rx="8" ry="14" fill="#ffffff" stroke="#ffd6e4" stroke-width="0.8" transform="rotate(300)"/>
    <circle cx="0" cy="0" r="8" fill="#fff0f5"/>
    <circle cx="0" cy="0" r="4" fill="#ffb6cf"/>
  </g>

  <path d="M148,97 Q168,80 185,100 Q168,120 148,103 Z" fill="url(#rib)" stroke="#ffb6cf" stroke-width="0.7" opacity="0.9"/>
  <path d="M148,97 Q128,80 111,100 Q128,120 148,103 Z" fill="url(#rib)" stroke="#ffb6cf" stroke-width="0.7" opacity="0.9"/>
  <path d="M148,100 L148,130" stroke="#ffb6cf" stroke-width="1.2" opacity="0.6"/>
  <path d="M143,130 Q148,140 153,130" fill="none" stroke="#ffb6cf" stroke-width="1.2" opacity="0.6"/>
  <circle cx="148" cy="100" r="5.5" fill="#ffffff" stroke="#ffaac5" stroke-width="1"/>
  <circle cx="148" cy="100" r="2.5" fill="#ffb6cf"/>

  <path d="M532,97 Q552,80 569,100 Q552,120 532,103 Z" fill="url(#rib)" stroke="#ffb6cf" stroke-width="0.7" opacity="0.9"/>
  <path d="M532,97 Q512,80 495,100 Q512,120 532,103 Z" fill="url(#rib)" stroke="#ffb6cf" stroke-width="0.7" opacity="0.9"/>
  <path d="M532,100 L532,130" stroke="#ffb6cf" stroke-width="1.2" opacity="0.6"/>
  <path d="M527,130 Q532,140 537,130" fill="none" stroke="#ffb6cf" stroke-width="1.2" opacity="0.6"/>
  <circle cx="532" cy="100" r="5.5" fill="#ffffff" stroke="#ffaac5" stroke-width="1"/>
  <circle cx="532" cy="100" r="2.5" fill="#ffb6cf"/>

  <path d="M246,33 C246,30 241,26 237,30 C233,26 228,30 228,33 C228,38 237,45 237,45 C237,45 246,38 246,33Z" fill="#ffb6cf" opacity="0.55"/>
  <path d="M456,168 C456,165 451,161 447,165 C443,161 438,165 438,168 C438,173 447,180 447,180 C447,180 456,173 456,168Z" fill="#ffb6cf" opacity="0.5"/>
  <path d="M322,20 C322,17.5 318,14 315,17.5 C312,14 308,17.5 308,20 C308,24.5 315,30 315,30 C315,30 322,24.5 322,20Z" fill="#ffaac5" opacity="0.5"/>

  <circle cx="260" cy="165" r="2.5" fill="#ffb6cf" opacity="0.6"/>
  <circle cx="272" cy="175" r="1.8" fill="#ffd6e4" opacity="0.7"/>
  <circle cx="285" cy="160" r="2" fill="#ffaac5" opacity="0.55"/>
  <circle cx="410" cy="35" r="2.5" fill="#ffb6cf" opacity="0.6"/>
  <circle cx="422" cy="25" r="1.8" fill="#ffd6e4" opacity="0.7"/>
  <circle cx="435" cy="40" r="2" fill="#ffaac5" opacity="0.55"/>
  <circle cx="340" cy="185" r="2" fill="#ffb6cf" opacity="0.45"/>
  <circle cx="200" cy="170" r="1.8" fill="#ffd6e4" opacity="0.5"/>
  <circle cx="480" cy="30" r="1.8" fill="#ffd6e4" opacity="0.5"/>

  <text x="340" y="88" text-anchor="middle" font-family="Georgia, 'Times New Roman', serif" font-size="48" font-weight="700" fill="#c2185b" opacity="0.88" letter-spacing="3">MarryView</text>
  <text x="340" y="120" text-anchor="middle" font-family="Georgia, serif" font-size="14" font-weight="400" fill="#e91e63" opacity="0.7" letter-spacing="4">✦  Wedding &amp; Life Platform  ✦</text>
  <text x="340" y="152" text-anchor="middle" font-family="Georgia, serif" font-size="12" font-weight="400" fill="#ad1457" opacity="0.65" letter-spacing="1.5">결혼부터 가족의 모든 순간을, 메리하게</text>

  <line x1="210" y1="165" x2="264" y2="165" stroke="#ffd6e4" stroke-width="0.8" opacity="0.7"/>
  <circle cx="270" cy="165" r="2" fill="#ffb6cf" opacity="0.7"/>
  <line x1="276" y1="165" x2="404" y2="165" stroke="#ffd6e4" stroke-width="0.8" opacity="0.7"/>
  <circle cx="410" cy="165" r="2" fill="#ffb6cf" opacity="0.7"/>
  <line x1="416" y1="165" x2="470" y2="165" stroke="#ffd6e4" stroke-width="0.8" opacity="0.7"/>
</svg>
